M48
; DRILL file {KiCad (6.0.11)} date Thu Apr  6 16:38:09 2023
; FORMAT={-:-/ absolute / inch / decimal}
; #@! TF.CreationDate,2023-04-06T16:38:09-06:00
; #@! TF.GenerationSoftware,Kicad,Pcbnew,(6.0.11)
; #@! TF.FileFunction,Plated,1,2,PTH
FMAT,2
INCH
; #@! TA.AperFunction,Plated,PTH,ViaDrill
T1C0.0157
; #@! TA.AperFunction,Plated,PTH,ComponentDrill
T2C0.0300
; #@! TA.AperFunction,Plated,PTH,ComponentDrill
T3C0.0350
; #@! TA.AperFunction,Plated,PTH,ComponentDrill
T4C0.0350
; #@! TA.AperFunction,Plated,PTH,ComponentDrill
T5C0.0354
; #@! TA.AperFunction,Plated,PTH,ComponentDrill
T6C0.0362
; #@! TA.AperFunction,Plated,PTH,ComponentDrill
T7C0.0394
; #@! TA.AperFunction,Plated,PTH,ComponentDrill
T8C0.0433
; #@! TA.AperFunction,Plated,PTH,ComponentDrill
T9C0.0450
; #@! TA.AperFunction,Plated,PTH,ComponentDrill
T10C0.0453
; #@! TA.AperFunction,Plated,PTH,ComponentDrill
T11C0.0551
; #@! TA.AperFunction,Plated,PTH,ComponentDrill
T12C0.0618
; #@! TA.AperFunction,Plated,PTH,ComponentDrill
T13C0.0709
; #@! TA.AperFunction,Plated,PTH,ComponentDrill
T14C0.0906
; #@! TA.AperFunction,Plated,PTH,ComponentDrill
T15C0.1252
; #@! TA.AperFunction,Plated,PTH,ComponentDrill
T16C0.1260
; #@! TA.AperFunction,Plated,PTH,ComponentDrill
T17C0.1280
%
G90
G05
T1
X2.66Y4.255
X2.71Y1.7733
X2.75Y1.7575
X2.783Y3.958
X2.8715Y2.3565
X2.8732Y2.2668
X2.878Y2.177
X2.965Y4.0275
X3.02Y1.7575
X3.055Y1.795
X3.0862Y-1.255
X3.1309Y-0.8505
X3.265Y1.925
X3.2916Y-0.7566
X3.325Y4.6025
X3.325Y4.345
X3.3549Y2.0291
X3.3825Y2.065
X3.4375Y1.93
X3.4641Y-0.5841
X3.4673Y-0.4473
X4.37Y5.19
X4.375Y4.285
X4.4Y3.84
X4.42Y5.045
X4.45Y1.12
X4.48Y5.21
X4.5339Y4.525
X4.5765Y4.31
X4.585Y4.7235
X4.585Y-0.03
X4.6Y4.855
X4.6114Y1.12
X4.635Y4.4975
X4.645Y5.295
X4.655Y4.855
X4.67Y0.59
X4.675Y4.31
X4.6978Y0.6185
X4.7Y1.3928
X4.705Y1.215
X4.705Y1.025
X4.7205Y0.6507
X4.7339Y4.345
X4.735Y1.3628
X4.755Y5.285
X4.755Y5.13
X4.755Y0.68
X4.7652Y1.3343
X4.77Y4.725
X4.77Y0.8541
X4.7761Y4.145
X4.785Y5.095
X4.795Y1.3057
X4.795Y0.71
X4.795Y-0.055
X4.8Y5.285
X4.8Y0.885
X4.8Y0.8256
X4.825Y1.2728
X4.83Y0.915
X4.83Y0.74
X4.831Y0.7971
X4.8331Y4.3725
X4.8331Y4.14
X4.86Y0.945
X4.8652Y0.7685
X4.89Y1.425
X4.89Y0.975
X4.925Y5.04
X4.95Y4.31
X4.97Y0.545
X5.02Y4.345
X5.08Y4.4975
X5.095Y5.295
X5.095Y4.845
X5.095Y4.705
X5.125Y4.315
X5.145Y5.3
X5.145Y4.845
X5.145Y1.12
X5.185Y1.455
X5.195Y5.3
X5.195Y4.325
X5.2135Y1.4885
X5.2185Y0.545
X5.225Y4.54
X5.225Y4.365
X5.24Y1.525
X5.245Y4.865
X5.2515Y1.57
X5.285Y5.04
X5.295Y4.835
X5.305Y4.605
X5.33Y4.02
X5.34Y5.05
X5.3425Y4.5225
X5.345Y1.025
X5.405Y3.815
X5.4235Y0.545
X5.44Y4.665
X5.45Y4.865
X5.47Y3.935
X5.5048Y-0.0448
X5.51Y4.025
X5.51Y0.025
X5.545Y1.0728
X5.6185Y0.545
X5.65Y4.745
X5.66Y4.835
X5.665Y-0.3565
X5.7076Y0.1876
X5.715Y-0.2
X5.725Y4.615
X5.735Y-0.14
X5.735Y-0.385
X5.74Y-0.295
X5.745Y1.1672
X5.745Y-0.23
X5.76Y-0.1715
X5.77Y-0.328
X5.7737Y-0.265
X5.775Y4.605
X5.78Y-0.43
X5.785Y4.42
X5.81Y4.475
X5.82Y3.935
X5.82Y1.235
X5.845Y-0.495
X5.9Y1.4213
X5.9Y0.56
X5.94Y-0.555
X5.94Y-0.71
X5.985Y-0.605
X5.99Y0.3
X6.02Y-0.655
X6.065Y-0.825
X6.145Y0.9735
X6.16Y-0.76
X6.185Y-0.795
X6.225Y-0.855
X6.245Y0.95
X6.255Y4.895
X6.28Y-0.885
X6.29Y-0.935
X6.345Y0.9135
X6.36Y-0.95
X6.395Y3.935
X6.445Y0.885
X6.545Y0.8541
X6.59Y3.79
X6.615Y3.405
X6.615Y3.335
X6.645Y0.8256
X6.66Y3.79
X6.745Y0.797
X6.775Y5.51
X6.845Y0.77
X6.945Y0.74
X6.95Y1.57
X7.0Y1.235
X7.04Y0.71
X7.145Y0.68
X7.2Y1.46
X7.245Y0.647
X7.29Y1.517
X7.345Y0.6185
X7.395Y1.485
X7.44Y0.59
X7.4615Y0.085
X7.485Y1.2728
X7.58Y1.3057
X7.595Y5.495
X7.695Y1.3343
X7.695Y-0.3
X7.73Y-0.335
X7.76Y-0.38
X7.8022Y1.3622
X7.81Y-0.445
X7.8452Y-0.4274
X7.8715Y0.545
X7.875Y-0.38
X7.9Y1.3928
X7.905Y-0.515
X7.945Y0.545
X7.96Y-0.76
X8.16Y-0.76
X8.29Y4.575
X8.38Y1.0722
X8.38Y1.025
X8.41Y3.88
X8.415Y4.575
X8.4625Y4.6225
X8.47Y4.11
X8.47Y1.225
X8.47Y1.12
X8.475Y-1.02
X8.565Y4.1578
X8.565Y3.885
X8.645Y1.0722
X8.695Y4.205
X8.7Y1.025
T2
X4.945Y0.4448
X4.945Y0.3448
X5.045Y0.4448
X5.045Y0.3448
X5.145Y0.4448
X5.145Y0.3448
X5.245Y0.4448
X5.245Y0.3448
X5.345Y0.4448
X5.345Y0.3448
X5.445Y0.4448
X5.445Y0.3448
X5.545Y0.4448
X5.545Y0.3448
X5.645Y0.4448
X5.645Y0.3448
X5.745Y0.4448
X5.745Y0.3448
X5.745Y0.2448
X5.745Y0.1448
X5.845Y0.4448
X5.845Y0.3448
X5.845Y0.2448
X5.845Y0.1448
X5.945Y0.4448
X5.945Y0.3448
X5.945Y0.2448
X5.945Y0.1448
X6.045Y0.4448
X6.045Y0.3448
X6.045Y0.2448
X6.045Y0.1448
X6.145Y0.4448
X6.145Y0.3448
X6.145Y0.2448
X6.145Y0.1448
X6.245Y0.4448
X6.245Y0.3448
X6.245Y0.2448
X6.245Y0.1448
X6.345Y0.4448
X6.345Y0.3448
X6.345Y0.2448
X6.345Y0.1448
X6.445Y0.4448
X6.445Y0.3448
X6.445Y0.2448
X6.445Y0.1448
X6.545Y0.4448
X6.545Y0.3448
X6.545Y0.2448
X6.545Y0.1448
X6.645Y0.4448
X6.645Y0.3448
X6.645Y0.2448
X6.645Y0.1448
X6.745Y0.4448
X6.745Y0.3448
X6.745Y0.2448
X6.745Y0.1448
X6.845Y0.4448
X6.845Y0.3448
X6.845Y0.2448
X6.845Y0.1448
X6.945Y0.4448
X6.945Y0.3448
X6.945Y0.2448
X6.945Y0.1448
X7.045Y0.4448
X7.045Y0.3448
X7.045Y0.2448
X7.045Y0.1448
X7.145Y0.4448
X7.145Y0.3448
X7.145Y0.2448
X7.145Y0.1448
X7.245Y0.4448
X7.245Y0.3448
X7.245Y0.2448
X7.245Y0.1448
X7.345Y0.4448
X7.345Y0.3448
X7.345Y0.2448
X7.345Y0.1448
X7.445Y0.4448
X7.445Y0.3448
X7.445Y0.2448
X7.445Y0.1448
X7.545Y0.4448
X7.545Y0.3448
X7.545Y0.2448
X7.545Y0.1448
X7.645Y0.4448
X7.645Y0.3448
X7.645Y0.2448
X7.645Y0.1448
X7.745Y0.4448
X7.745Y0.3448
X7.845Y0.4448
X7.845Y0.3448
X7.945Y0.4448
X7.945Y0.3448
X8.045Y0.4448
X8.045Y0.3448
T3
X3.3332Y5.57
X3.8132Y5.57
T4
X2.4801Y1.4267
X2.4801Y1.3467
X2.4801Y1.2667
X2.4801Y1.1867
X2.5502Y1.4667
X2.5502Y1.3867
X2.5502Y1.3067
X2.5502Y1.2267
X2.74Y1.5969
X2.74Y1.5068
X2.74Y1.1469
X2.74Y1.0568
T5
X2.488Y0.4532
X2.488Y0.3453
X2.488Y0.2374
X2.488Y0.1296
X2.488Y0.0217
X2.488Y-0.0862
X2.488Y-0.1941
X2.5998Y0.5071
X2.5998Y0.3993
X2.5998Y0.2914
X2.5998Y0.1835
X2.5998Y0.0756
X2.5998Y-0.0322
X2.5998Y-0.1401
X2.5998Y-0.248
X6.0298Y5.425
X6.0298Y5.085
X6.1298Y5.425
X6.1298Y5.085
T6
X2.6617Y3.4806
X2.6617Y3.3822
X2.6617Y3.3034
X2.6617Y3.205
X2.7648Y3.4806
X2.7648Y3.3822
X2.7648Y3.3034
X2.7648Y3.205
T7
X2.5102Y2.5361
X2.5102Y2.4463
X2.5102Y2.3565
X2.5102Y2.2668
X2.5102Y2.177
X2.6102Y2.4912
X2.6102Y2.4014
X2.6102Y2.3117
X2.6102Y2.2219
X2.6102Y2.1321
X2.7102Y2.5361
X2.7102Y2.4463
X2.7102Y2.3565
X2.7102Y2.2668
X2.7102Y2.177
X3.09Y5.49
X3.09Y5.39
X3.09Y5.29
X3.09Y5.19
X3.09Y5.09
X3.1352Y4.4706
X3.1352Y4.3706
X3.1352Y4.2706
X3.1352Y4.1706
X3.1352Y4.0706
X3.19Y5.49
X3.19Y5.39
X3.19Y5.29
X3.19Y5.19
X3.19Y5.09
X3.1948Y3.5354
X3.1948Y3.4354
X3.1948Y3.3354
X3.1948Y3.2354
X3.1948Y3.1354
X3.1948Y1.5806
X3.1948Y1.4806
X3.1948Y1.3806
X3.1948Y1.2806
X3.1948Y1.1806
X3.1948Y1.0806
X3.2Y2.695
X3.2Y2.595
X3.2Y2.495
X3.2Y2.395
X3.2Y2.295
X3.2Y2.195
X3.2Y2.095
X3.2Y1.995
X3.2Y0.52
X3.2Y0.42
X3.2Y0.32
X3.2Y0.22
X3.2Y0.12
X3.2Y0.02
X3.2Y-0.08
X3.2Y-0.18
X3.2352Y4.4706
X3.2352Y4.3706
X3.2352Y4.2706
X3.2352Y4.1706
X3.2352Y4.0706
X3.2948Y3.5354
X3.2948Y3.4354
X3.2948Y3.3354
X3.2948Y3.2354
X3.2948Y3.1354
X3.2948Y1.5806
X3.2948Y1.4806
X3.2948Y1.3806
X3.2948Y1.2806
X3.2948Y1.1806
X3.2948Y1.0806
X3.3Y2.695
X3.3Y2.595
X3.3Y2.495
X3.3Y2.395
X3.3Y2.295
X3.3Y2.195
X3.3Y2.095
X3.3Y1.995
X3.3Y0.52
X3.3Y0.42
X3.3Y0.32
X3.3Y0.22
X3.3Y0.12
X3.3Y0.02
X3.3Y-0.08
X3.3Y-0.18
X3.4Y4.4706
X3.4Y4.3706
X3.4Y4.2706
X3.4Y4.1706
X3.4Y4.0706
X3.5Y4.4706
X3.5Y4.3706
X3.5Y4.2706
X3.5Y4.1706
X3.5Y4.0706
X4.495Y3.9802
X4.495Y3.8802
X4.5701Y5.5299
X4.5701Y5.4299
X4.5701Y5.3299
X4.5701Y5.2299
X4.5701Y5.1299
X4.8701Y5.5299
X4.8701Y5.4299
X4.8701Y5.3299
X4.8701Y5.2299
X4.8701Y5.1299
X5.02Y5.53
X5.02Y5.43
X5.02Y5.33
X5.02Y5.23
X5.02Y5.13
X5.32Y5.53
X5.32Y5.43
X5.32Y5.33
X5.32Y5.23
X5.32Y5.13
X6.02Y4.7952
X6.02Y4.6952
T8
X2.4959Y5.4594
X2.4959Y5.3768
X2.4959Y5.2744
X2.4959Y5.1917
X2.5944Y5.4594
X2.5944Y5.1917
X2.7715Y5.4594
X2.7715Y5.3768
X2.7715Y5.2744
X2.7715Y5.1917
X2.87Y5.4594
X2.87Y5.1917
X3.99Y3.9931
X4.09Y3.9931
X4.19Y3.9931
T9
X3.16Y-1.135
X3.16Y-1.335
X3.26Y-1.135
X3.26Y-1.335
X3.36Y-1.135
X3.36Y-1.335
X3.46Y-1.135
X3.46Y-1.335
X3.56Y-1.135
X3.56Y-1.335
X3.66Y-1.135
X3.66Y-1.335
X3.76Y-1.135
X3.76Y-1.335
X3.86Y-1.135
X3.86Y-1.335
X3.96Y-1.135
X3.96Y-1.335
X4.06Y-1.135
X4.06Y-1.335
X4.16Y-1.135
X4.16Y-1.335
X4.26Y-1.135
X4.26Y-1.335
X4.36Y-1.135
X4.36Y-1.335
X4.46Y-1.135
X4.46Y-1.335
X4.56Y-1.135
X4.56Y-1.335
X4.66Y-1.135
X4.66Y-1.335
X4.76Y-1.135
X4.76Y-1.335
X4.86Y-1.135
X4.86Y-1.335
X4.96Y-1.135
X4.96Y-1.335
X5.06Y-1.135
X5.06Y-1.335
X5.16Y-1.135
X5.16Y-1.335
X5.26Y-1.135
X5.26Y-1.335
X5.36Y-1.135
X5.36Y-1.335
X5.46Y-1.135
X5.46Y-1.335
X5.56Y-1.135
X5.56Y-1.335
X5.66Y-1.135
X5.66Y-1.335
X5.76Y-1.135
X5.76Y-1.335
X5.86Y-1.135
X5.86Y-1.335
X5.96Y-1.135
X5.96Y-1.335
X6.06Y-1.135
X6.06Y-1.335
X6.16Y-1.135
X6.16Y-1.335
X6.56Y-1.135
X6.56Y-1.335
X6.66Y-1.135
X6.66Y-1.335
X6.76Y-1.135
X6.76Y-1.335
X6.86Y-1.135
X6.86Y-1.335
X6.96Y-1.135
X6.96Y-1.335
X7.06Y-1.135
X7.06Y-1.335
X7.16Y-1.135
X7.16Y-1.335
X7.26Y-1.135
X7.26Y-1.335
X7.36Y-1.135
X7.36Y-1.335
X7.46Y-1.135
X7.46Y-1.335
X7.56Y-1.135
X7.56Y-1.335
X7.66Y-1.135
X7.66Y-1.335
X7.76Y-1.135
X7.76Y-1.335
X7.86Y-1.135
X7.86Y-1.335
X7.96Y-1.135
X7.96Y-1.335
X8.06Y-1.135
X8.06Y-1.335
X8.16Y-1.135
X8.16Y-1.335
X8.26Y-1.135
X8.26Y-1.335
T10
X2.4891Y4.4942
X2.4891Y4.3851
X2.4891Y4.2761
X2.4891Y4.167
X2.6009Y4.5487
X2.6009Y4.4396
X2.6009Y4.3306
X2.6009Y4.2215
X2.6009Y4.1125
X2.7552Y4.4942
X2.7552Y4.3851
X2.7552Y4.2761
X2.7552Y4.167
X2.867Y4.5487
X2.867Y4.4396
X2.867Y4.3306
X2.867Y4.2215
X2.867Y4.1125
T11
X6.4303Y4.98
X6.4303Y4.7634
X6.5956Y4.98
X6.5956Y4.7634
X6.761Y4.98
X6.761Y4.7634
X6.9263Y4.98
X6.9263Y4.7634
X7.0917Y4.98
X7.0917Y4.7634
X7.257Y4.98
X7.257Y4.7634
X7.4224Y4.98
X7.4224Y4.7634
X7.5878Y4.98
X7.5878Y4.7634
X7.7531Y4.98
X7.7531Y4.7634
X7.9185Y4.98
X7.9185Y4.7634
X8.0838Y4.98
X8.0838Y4.7634
X8.2492Y4.98
X8.2492Y4.7634
T12
X2.5152Y1.6469
X2.5152Y1.0068
T13
X6.475Y5.4198
X6.6309Y5.4198
X6.7869Y5.4198
X6.9428Y5.4198
X7.0987Y5.4198
X7.2546Y5.4198
X7.4105Y5.4198
X7.5664Y5.4198
X7.7223Y5.4198
X7.8782Y5.4198
X8.0341Y5.4198
X8.19Y5.4198
T14
X2.3463Y5.3256
X2.3778Y5.5913
X2.3778Y5.0598
X2.555Y3.6015
X2.555Y3.0841
X2.7715Y5.5913
X2.7715Y5.0598
X2.7786Y3.6015
X2.7786Y3.0841
T15
X4.895Y0.1448
X5.045Y3.52
X7.945Y3.52
X8.045Y0.1448
T16
X2.5439Y0.7855
X2.5439Y-0.5263
X2.56Y-0.735
X2.6102Y2.8392
X2.6102Y1.855
X3.46Y5.37
X8.655Y5.365
X8.66Y-0.735
T17
X2.4891Y4.8225
X2.4891Y3.8387
X2.804Y4.8225
X2.804Y3.8387
T0
M30
