%TF.GenerationSoftware,KiCad,Pcbnew,(6.0.11)*%
%TF.CreationDate,2023-04-06T16:38:06-06:00*%
%TF.ProjectId,isa-itx-pc104-backplane,6973612d-6974-4782-9d70-633130342d62,rev?*%
%TF.SameCoordinates,Original*%
%TF.FileFunction,Legend,Bot*%
%TF.FilePolarity,Positive*%
%FSLAX46Y46*%
G04 Gerber Fmt 4.6, Leading zero omitted, Abs format (unit mm)*
G04 Created by KiCad (PCBNEW (6.0.11)) date 2023-04-06 16:38:06*
%MOMM*%
%LPD*%
G01*
G04 APERTURE LIST*
%ADD10C,0.100000*%
%ADD11C,0.120000*%
G04 APERTURE END LIST*
D10*
X190928047Y140501619D02*
X190928047Y139787333D01*
X190975666Y139644476D01*
X191070904Y139549238D01*
X191213761Y139501619D01*
X191309000Y139501619D01*
X189975666Y139501619D02*
X190451857Y139501619D01*
X190451857Y140501619D01*
X189070904Y139596857D02*
X189118523Y139549238D01*
X189261380Y139501619D01*
X189356619Y139501619D01*
X189499476Y139549238D01*
X189594714Y139644476D01*
X189642333Y139739714D01*
X189689952Y139930190D01*
X189689952Y140073047D01*
X189642333Y140263523D01*
X189594714Y140358761D01*
X189499476Y140454000D01*
X189356619Y140501619D01*
X189261380Y140501619D01*
X189118523Y140454000D01*
X189070904Y140406380D01*
X188356619Y140501619D02*
X188356619Y139787333D01*
X188404238Y139644476D01*
X188499476Y139549238D01*
X188642333Y139501619D01*
X188737571Y139501619D01*
X187404238Y139501619D02*
X187880428Y139501619D01*
X187880428Y140501619D01*
X186499476Y139596857D02*
X186547095Y139549238D01*
X186689952Y139501619D01*
X186785190Y139501619D01*
X186928047Y139549238D01*
X187023285Y139644476D01*
X187070904Y139739714D01*
X187118523Y139930190D01*
X187118523Y140073047D01*
X187070904Y140263523D01*
X187023285Y140358761D01*
X186928047Y140454000D01*
X186785190Y140501619D01*
X186689952Y140501619D01*
X186547095Y140454000D01*
X186499476Y140406380D01*
X185785190Y140501619D02*
X185785190Y139787333D01*
X185832809Y139644476D01*
X185928047Y139549238D01*
X186070904Y139501619D01*
X186166142Y139501619D01*
X184832809Y139501619D02*
X185309000Y139501619D01*
X185309000Y140501619D01*
X183928047Y139596857D02*
X183975666Y139549238D01*
X184118523Y139501619D01*
X184213761Y139501619D01*
X184356619Y139549238D01*
X184451857Y139644476D01*
X184499476Y139739714D01*
X184547095Y139930190D01*
X184547095Y140073047D01*
X184499476Y140263523D01*
X184451857Y140358761D01*
X184356619Y140454000D01*
X184213761Y140501619D01*
X184118523Y140501619D01*
X183975666Y140454000D01*
X183928047Y140406380D01*
X183213761Y140501619D02*
X183213761Y139787333D01*
X183261380Y139644476D01*
X183356619Y139549238D01*
X183499476Y139501619D01*
X183594714Y139501619D01*
X182261380Y139501619D02*
X182737571Y139501619D01*
X182737571Y140501619D01*
X181356619Y139596857D02*
X181404238Y139549238D01*
X181547095Y139501619D01*
X181642333Y139501619D01*
X181785190Y139549238D01*
X181880428Y139644476D01*
X181928047Y139739714D01*
X181975666Y139930190D01*
X181975666Y140073047D01*
X181928047Y140263523D01*
X181880428Y140358761D01*
X181785190Y140454000D01*
X181642333Y140501619D01*
X181547095Y140501619D01*
X181404238Y140454000D01*
X181356619Y140406380D01*
D11*
%TO.C,J1*%
X213360000Y-28829000D02*
G75*
G03*
X213360000Y-28829000I-381000J0D01*
G01*
%TD*%
M02*
